<!-- icon666.com - MILLIONS vector ICONS FREE --><svg version="1.1" id="Layer_1" xmlns="http://www.w3.org/2000/svg" xmlns:xlink="http://www.w3.org/1999/xlink" x="0px" y="0px" viewBox="0 0 489.5 489.5" style="enable-background:new 0 0 489.5 489.5;" xml:space="preserve"><g><g><path d="M448.35,249.1c-1.4-2.7-1.4-5.9,0-8.7l28-54.9c2.6-5.1,3.1-11,1.3-16.4c-1.8-5.4-5.6-9.9-10.7-12.5l-55-27.9 c-2.7-1.4-4.6-4-5.1-7l-9.6-60.9c-1.7-10.5-10.6-18.2-21.2-18.2c-1.1,0-2.3,0.1-3.4,0.3l-60.9,9.7c-3,0.5-6.1-0.5-8.2-2.7 l-43.6-43.6c-4.1-4.1-9.5-6.3-15.2-6.3s-11.2,2.2-15.2,6.3l-43.6,43.6c-2.1,2.1-5.3,3.1-8.2,2.7l-60.9-9.8 c-1.1-0.2-2.3-0.3-3.4-0.3c-10.6,0-19.6,7.6-21.2,18.2l-9.6,60.9c-0.5,3-2.4,5.6-5.1,7l-55,27.9c-5.1,2.6-8.9,7.1-10.7,12.5 c-1.8,5.4-1.3,11.3,1.3,16.4l28,54.9c1.4,2.7,1.4,5.9,0,8.7l-28,55c-2.6,5.1-3.1,11-1.3,16.4c1.8,5.4,5.6,9.9,10.7,12.5l55,27.9 c2.7,1.4,4.6,4,5.1,7l9.6,60.9c1.7,10.5,10.6,18.2,21.2,18.2c1.1,0,2.3-0.1,3.4-0.3l60.9-9.7c3-0.5,6.1,0.5,8.2,2.7l43.6,43.6 c4.1,4.1,9.5,6.3,15.2,6.3s11.2-2.2,15.2-6.3l43.6-43.6c2.1-2.1,5.3-3.2,8.2-2.7l60.9,9.7c1.1,0.2,2.3,0.3,3.4,0.3 c10.6,0,19.6-7.6,21.2-18.2l9.6-60.9c0.5-3,2.4-5.6,5.1-7l55-27.9c5.1-2.6,8.9-7.1,10.7-12.5c1.8-5.4,1.3-11.3-1.3-16.4 L448.35,249.1z M466.15,316.8c-0.8,2.4-2.5,4.4-4.7,5.5l-55,27.9c-6.1,3.1-10.4,9-11.5,15.8l-9.6,60.9c-0.7,4.6-4.8,8-9.4,8 c-0.5,0-1,0-1.5-0.1l-60.9-9.7c-1.1-0.2-2.3-0.3-3.4-0.3c-5.7,0-11.2,2.3-15.2,6.3l-43.6,43.6c-1.8,1.8-4.2,2.8-6.7,2.8 c-2.5,0-4.9-1-6.7-2.8l-43.6-43.6c-4-4-9.6-6.3-15.2-6.3c-1.1,0-2.3,0.1-3.4,0.3l-60.9,9.7c-0.5,0.1-1,0.1-1.5,0.1 c-4.6,0-8.7-3.5-9.4-8l-9.6-60.9c-1.1-6.8-5.4-12.7-11.5-15.8l-55-27.9c-2.3-1.2-4-3.1-4.7-5.5c-0.8-2.4-0.6-5,0.6-7.3l28.1-54.9 c3.2-6.1,3.2-13.5,0-19.6l-28-54.9c-1.2-2.3-1.4-4.8-0.6-7.3c0.8-2.4,2.5-4.4,4.7-5.5l55-27.9c6.1-3.1,10.4-9,11.5-15.8l9.6-60.9 c0.7-4.6,4.8-8,9.4-8c0.5,0,1,0,1.5,0.1l60.9,9.7c1.1,0.2,2.3,0.3,3.4,0.3c5.7,0,11.2-2.3,15.2-6.3l43.6-43.6 c1.8-1.8,4.2-2.8,6.7-2.8s4.9,1,6.7,2.8l43.6,43.6c4,4,9.6,6.3,15.2,6.3c1.1,0,2.3-0.1,3.4-0.3l60.9-9.7c0.5-0.1,1-0.1,1.5-0.1 c4.7,0,8.6,3.4,9.4,8l9.6,60.9c1.1,6.8,5.4,12.7,11.5,15.8l55,27.9c2.3,1.2,4,3.1,4.7,5.5c0.8,2.4,0.6,5-0.6,7.3l-28.1,54.9 c-3.1,6.1-3.1,13.4,0,19.6l28,54.9C466.75,311.8,466.95,314.3,466.15,316.8z"></path></g></g><g><g><path d="M324.45,188.1h-49v-35.3c0-15.1-4.4-26-13.2-32.4c-13.8-10.2-32.8-4.4-33.6-4.1c-2.5,0.8-4.2,3.1-4.2,5.7v39.8 c0,31.2-36.2,41.8-37.8,42.3c-0.5,0.1-1,0.4-1.4,0.6c-1.8-2.2-4.6-3.6-7.7-3.6h-40.7c-5.5,0-9.9,4.4-9.9,9.9v111.4 c0,5.5,4.5,9.9,9.9,9.9h40.7c3.6,0,6.7-1.9,8.5-4.8c5.7,5.2,13.3,8.3,21.6,8.3h97.6c21.8,0,35.6-11.4,38.1-31.3l13.1-83.4 c0-0.3,0.1-0.6,0.1-0.9C356.55,202.5,342.15,188.1,324.45,188.1z M175.45,320.3h-36.5V213.1h36.5V320.3z M331.35,302.8 c0,0.1,0,0.1,0,0.2c-1.6,13.8-10.4,20.8-26.1,20.8h-97.6c-11.1,0-20.1-9-20.1-20.1v-87.9c0.7,0.1,1.5,0.1,2.3-0.1 c1.9-0.5,46.5-13.5,46.5-53.8v-35c4.8-0.7,12.9-1.1,18.7,3.2c5.5,4,8.3,11.7,8.3,22.8v41.2c0,3.3,2.7,6,6,6h55 c11,0,19.9,8.8,20.1,19.7L331.35,302.8z"></path></g></g></svg>