<?xml version="1.0" encoding="UTF-8"?>
<!DOCTYPE svg PUBLIC "-//W3C//DTD SVG 1.1//EN" "http://www.w3.org/Graphics/SVG/1.1/DTD/svg11.dtd">
<!-- Creator: CorelDRAW 2020 (64-Bit) -->
<svg xmlns="http://www.w3.org/2000/svg" xml:space="preserve" width="500px" height="500px" version="1.1" style="shape-rendering:geometricPrecision; text-rendering:geometricPrecision; image-rendering:optimizeQuality; fill-rule:evenodd; clip-rule:evenodd"
viewBox="0 0 500 500"
 xmlns:xlink="http://www.w3.org/1999/xlink"
 xmlns:xodm="http://www.corel.com/coreldraw/odm/2003">
 <defs>
  <style type="text/css">
   <![CDATA[
    .str0 {stroke:#2B2A29;stroke-width:0.17;stroke-miterlimit:22.9256}
    .fil1 {fill:#FEFEFE}
    .fil0 {fill:black}
   ]]>
  </style>
 </defs>
 <g id="Слой_x0020_1">
  <metadata id="CorelCorpID_0Corel-Layer"/>
  <rect class="fil0 str0" width="500" height="500"/>
  <path class="fil1" d="M163.84 221.07c0.76,-0.11 1.49,0.2 1.92,0.55 0.41,0.34 0.81,0.86 0.91,1.62 0.2,1.51 -0.94,2.62 -2.22,2.79 -1.5,0.21 -2.69,-0.91 -2.85,-2.16 -0.06,-0.39 -0.01,-0.8 0.11,-1.13 0.37,-0.97 1.1,-1.51 2.13,-1.67zm-106.21 -48.41l384.74 0c0.85,0 1.54,0.66 1.54,1.47l0 151.74c0,0.81 -0.69,1.47 -1.54,1.47l-384.74 0c-0.85,0 -1.54,-0.66 -1.54,-1.47l0 -151.74c0,-0.81 0.69,-1.47 1.54,-1.47zm383.19 2.94l-381.64 0 0 148.8 381.64 0 0 -148.8zm-204.46 67.81c-4.18,0 -7.66,-1.28 -10.43,-3.83 -2.76,-2.56 -4.15,-5.85 -4.15,-9.87 0,-4.06 1.38,-7.35 4.13,-9.9 2.76,-2.54 6.24,-3.81 10.45,-3.81 3.18,0 5.74,0.74 7.69,2.22 1.95,1.49 3.4,3.32 4.35,5.49l-6.91 3.22c-0.35,-1.06 -1,-1.97 -1.95,-2.73 -0.95,-0.75 -2.01,-1.13 -3.18,-1.13 -1.9,0 -3.45,0.64 -4.65,1.91 -1.19,1.27 -1.78,2.85 -1.78,4.73 0,1.88 0.59,3.45 1.78,4.72 1.2,1.28 2.75,1.91 4.65,1.91 1.17,0 2.23,-0.38 3.18,-1.13 0.95,-0.76 1.6,-1.66 1.95,-2.72l6.91 3.18c-0.42,0.98 -0.95,1.88 -1.59,2.72 -0.63,0.83 -1.43,1.65 -2.38,2.44 -0.96,0.79 -2.13,1.42 -3.52,1.89 -1.39,0.46 -2.91,0.69 -4.55,0.69zm19.11 0c-3.07,0 -5.53,-0.71 -7.39,-2.14l3.26 -6.12c1.17,0.79 2.3,1.19 3.42,1.19 1.22,0 2.1,-0.42 2.66,-1.27l-9.34 -18.63 8.98 0 4.89 10.76 4.92 -10.76 8.98 0 -10.6 21.17c-1.96,3.87 -5.22,5.8 -9.78,5.8zm18.87 4.41l0 -11.48c1.33,-0.24 2.35,-0.8 3.06,-1.69 0.72,-0.88 1.22,-2.51 1.51,-4.86l1.63 -13.35 20.7 0 0 19.5 2.3 0 0 11.88 -8.02 0 0 -4.88 -13.15 0 0 4.88 -8.03 0zm12.56 -17.44c-0.27,2.2 -1.13,4.05 -2.58,5.56l8.89 0 0 -12.51 -5.44 0 -0.87 6.95zm42.73 9.2c-2.77,2.55 -6.22,3.83 -10.35,3.83 -4.13,0 -7.58,-1.28 -10.35,-3.83 -2.77,-2.56 -4.15,-5.85 -4.15,-9.87 0,-4.03 1.38,-7.32 4.15,-9.88 2.77,-2.55 6.22,-3.83 10.35,-3.83 4.13,0 7.58,1.28 10.35,3.83 2.76,2.56 4.15,5.85 4.15,9.88 0,4.02 -1.39,7.31 -4.15,9.87zm-14.94 -5.15c1.18,1.28 2.71,1.91 4.59,1.91 1.88,0 3.41,-0.63 4.59,-1.91 1.17,-1.27 1.76,-2.84 1.76,-4.72 0,-1.88 -0.59,-3.46 -1.76,-4.73 -1.18,-1.27 -2.71,-1.91 -4.59,-1.91 -1.88,0 -3.41,0.64 -4.59,1.91 -1.18,1.27 -1.77,2.85 -1.77,4.73 0,1.88 0.59,3.45 1.77,4.72zm38.6 8.51l-16.65 0 0 -26.5 16.09 0c2.54,0 4.49,0.69 5.84,2.06 1.35,1.38 2.03,2.94 2.03,4.69 0,1.62 -0.43,2.96 -1.28,4.03 -0.84,1.08 -1.93,1.76 -3.25,2.05 1.45,0.21 2.66,0.92 3.61,2.12 0.96,1.21 1.43,2.66 1.43,4.35 0,1.99 -0.67,3.69 -2.02,5.09 -1.36,1.4 -3.29,2.11 -5.8,2.11zm-2.43 -16.73c0.43,0 0.8,-0.15 1.11,-0.46 0.32,-0.3 0.48,-0.68 0.48,-1.13 0,-0.45 -0.16,-0.81 -0.48,-1.09 -0.31,-0.28 -0.68,-0.42 -1.11,-0.42l-6.2 0 0 3.1 6.2 0zm0.24 10.05c0.58,0 1.04,-0.15 1.37,-0.46 0.33,-0.3 0.5,-0.7 0.5,-1.21 0,-0.47 -0.17,-0.88 -0.52,-1.21 -0.34,-0.33 -0.79,-0.5 -1.35,-0.5l-6.44 0 0 3.38 6.44 0zm40.01 6.68l-9.1 0 -0.95 -3.1 -9.54 0 -0.95 3.1 -9.1 0 9.77 -26.5 10.09 0 9.78 26.5zm-12.2 -10.1l-2.62 -8.54 -2.62 8.54 5.24 0zm21.69 10.1l-9.14 0 4.81 -9.38c-1.3,-0.64 -2.41,-1.62 -3.36,-2.94 -0.94,-1.32 -1.41,-3.02 -1.41,-5.09 0,-2.59 0.85,-4.76 2.53,-6.49 1.68,-1.74 4.02,-2.6 7.01,-2.6l14.14 0 0 26.5 -8.02 0 0 -8.35 -2.9 0 -3.66 8.35zm1.67 -15.34l4.89 0 0 -4.17 -4.89 0c-0.74,0 -1.36,0.18 -1.87,0.54 -0.5,0.35 -0.75,0.86 -0.75,1.52 0,0.69 0.25,1.22 0.75,1.57 0.51,0.36 1.13,0.54 1.87,0.54zm-179.25 49.94l0 -7.34c0.84,-0.15 1.5,-0.51 1.95,-1.08 0.46,-0.56 0.78,-1.6 0.97,-3.11l1.04 -8.53 13.22 0 0 12.47 1.48 0 0 7.59 -5.13 0 0 -3.12 -8.4 0 0 3.12 -5.13 0zm8.02 -11.14c-0.17,1.4 -0.72,2.58 -1.65,3.55l5.69 0 0 -8 -3.48 0 -0.56 4.45zm17.26 8.02l-4.92 0 0 -16.94 5.13 0 0 9.04 5.88 -9.04 5.28 0 0 16.94 -5.12 0 0 -9.6 -6.25 9.6zm31.23 0l-5.82 0 -0.61 -1.98 -6.09 0 -0.61 1.98 -5.81 0 6.24 -16.94 6.45 0 6.25 16.94zm-7.8 -6.45l-1.67 -5.46 -1.68 5.46 3.35 0zm13.84 6.45l-5.13 0 0 -16.94 12.85 0 0 4.47 -7.72 0 0 12.47zm26.22 0l-5.13 0 0 -6.48 -6.06 0 0 6.48 -5.13 0 0 -16.94 5.13 0 0 6 6.06 0 0 -6 5.13 0 0 16.94zm17.71 -2.15c-1.77,1.64 -3.97,2.45 -6.61,2.45 -2.64,0 -4.85,-0.81 -6.62,-2.45 -1.77,-1.63 -2.65,-3.73 -2.65,-6.31 0,-2.57 0.88,-4.67 2.65,-6.3 1.77,-1.64 3.98,-2.45 6.62,-2.45 2.64,0 4.84,0.81 6.61,2.45 1.77,1.63 2.65,3.73 2.65,6.3 0,2.58 -0.88,4.68 -2.65,6.31zm-9.55 -3.29c0.76,0.82 1.73,1.22 2.94,1.22 1.2,0 2.17,-0.4 2.93,-1.22 0.75,-0.81 1.13,-1.81 1.13,-3.02 0,-1.2 -0.38,-2.2 -1.13,-3.02 -0.76,-0.81 -1.73,-1.22 -2.93,-1.22 -1.21,0 -2.18,0.41 -2.94,1.22 -0.75,0.82 -1.13,1.82 -1.13,3.02 0,1.21 0.38,2.21 1.13,3.02zm22.43 5.74c-2.67,0 -4.89,-0.81 -6.66,-2.45 -1.77,-1.63 -2.65,-3.73 -2.65,-6.31 0,-2.59 0.88,-4.69 2.64,-6.32 1.76,-1.62 3.98,-2.43 6.67,-2.43 2.03,0 3.67,0.47 4.91,1.42 1.25,0.94 2.18,2.11 2.78,3.5l-4.41 2.06c-0.22,-0.68 -0.64,-1.26 -1.25,-1.74 -0.61,-0.48 -1.28,-0.73 -2.03,-0.73 -1.22,0 -2.21,0.41 -2.97,1.22 -0.76,0.82 -1.14,1.82 -1.14,3.02 0,1.21 0.38,2.21 1.14,3.02 0.76,0.82 1.75,1.22 2.97,1.22 0.75,0 1.42,-0.24 2.03,-0.72 0.61,-0.48 1.03,-1.06 1.25,-1.74l4.41 2.03c-0.27,0.63 -0.6,1.21 -1.01,1.74 -0.41,0.53 -0.91,1.05 -1.52,1.56 -0.61,0.51 -1.36,0.91 -2.25,1.21 -0.89,0.29 -1.86,0.44 -2.91,0.44zm18.05 -0.3l-5.13 0 0 -12.47 -4.54 0 0 -4.47 14.19 0 0 4.47 -4.52 0 0 12.47zm11.27 0l-4.92 0 0 -16.94 5.13 0 0 9.04 5.89 -9.04 5.28 0 0 16.94 -5.13 0 0 -9.6 -6.25 9.6zm30.24 0l-6.25 0 -3.8 -5.97 -0.94 1.27 0 4.7 -5.13 0 0 -16.94 5.13 0 0 6.35 4.44 -6.35 6.27 0 -6.4 7.87 6.68 9.07zm18.02 0l-5.81 0 -0.61 -1.98 -6.09 0 -0.61 1.98 -5.82 0 6.25 -16.94 6.45 0 6.24 16.94zm-7.79 -6.45l-1.68 -5.46 -1.67 5.46 3.35 0zm-213.23 -69.88c0,-0.93 0.75,-1.68 1.68,-1.68 0.92,0 1.68,0.75 1.68,1.68l0 97.36c0,0.93 -0.76,1.68 -1.68,1.68 -0.93,0 -1.68,-0.75 -1.68,-1.68l0 -97.36zm-95.7 79.57c1.58,-0.91 3.56,-1.04 5.28,-0.48 0.89,0.28 1.64,0.84 2.4,1.35 0.66,0.45 1.49,0.5 2.25,0.35 0.73,-0.16 1.28,-0.7 1.91,-1.07 1.6,-1.04 3.68,-1.22 5.48,-0.65 0.9,0.28 1.66,0.84 2.42,1.36 0.67,0.45 1.52,0.51 2.3,0.36 0.65,-0.14 1.16,-0.6 1.7,-0.95 2.11,-1.45 5.11,-1.45 7.22,0 0.53,0.33 1.01,0.77 1.64,0.93 0.5,0.12 1.03,0.12 1.54,0.02 0.66,-0.15 1.18,-0.63 1.75,-0.99 2.09,-1.41 5.03,-1.4 7.12,0.01 0.59,0.37 1.13,0.88 1.84,1 0.68,0.1 1.42,0.08 2.03,-0.28 0.61,-0.36 1.16,-0.83 1.81,-1.14 1.5,-0.74 3.29,-0.82 4.88,-0.33 0.92,0.28 1.7,0.87 2.49,1.4 0.45,0.3 0.99,0.39 1.52,0.42l0 3.53c-1.15,-0.01 -2.3,-0.28 -3.28,-0.88 -0.71,-0.39 -1.3,-1.03 -2.12,-1.18 -0.74,-0.12 -1.54,-0.07 -2.18,0.36 -0.72,0.48 -1.42,1.01 -2.24,1.31 -1.46,0.52 -3.11,0.52 -4.57,-0.02 -0.82,-0.29 -1.52,-0.83 -2.24,-1.3 -0.63,-0.42 -1.42,-0.47 -2.14,-0.35 -0.75,0.12 -1.3,0.68 -1.93,1.05 -1.68,1.11 -3.88,1.28 -5.75,0.61 -0.8,-0.28 -1.48,-0.78 -2.17,-1.25 -0.72,-0.51 -1.69,-0.57 -2.53,-0.34 -0.69,0.23 -1.21,0.76 -1.83,1.1 -1.59,0.97 -3.6,1.12 -5.35,0.57 -0.89,-0.28 -1.65,-0.83 -2.41,-1.35 -0.64,-0.45 -1.48,-0.52 -2.23,-0.39 -0.69,0.12 -1.21,0.61 -1.78,0.97 -2.1,1.45 -5.09,1.45 -7.2,0.01 -0.59,-0.37 -1.14,-0.88 -1.86,-0.99 -0.7,-0.1 -1.47,-0.06 -2.08,0.34 -0.65,0.42 -1.26,0.91 -1.98,1.21 -0.81,0.37 -1.7,0.5 -2.58,0.52l0 -3.53c0.41,-0.04 0.84,-0.07 1.21,-0.26 0.59,-0.29 1.08,-0.73 1.66,-1.05zm20.1 -32.09c-0.24,0.48 -0.48,0.97 -0.72,1.45 0.28,0.14 0.55,0.27 0.83,0.41 0.14,0.07 0.21,0.26 0.14,0.41 -0.09,0.18 -0.19,0.37 -0.28,0.55 -0.07,0.15 -0.26,0.21 -0.41,0.13 -0.27,-0.13 -0.55,-0.26 -0.82,-0.4 -0.73,1.47 -1.45,2.94 -2.18,4.41 0.2,0.07 0.4,0.14 0.61,0.18 0.5,0.11 1.04,0.05 1.51,-0.17 0.37,-0.17 0.7,-0.44 0.95,-0.77 0.2,-0.29 0.33,-0.61 0.49,-0.92 -0.19,-0.1 -0.39,-0.19 -0.58,-0.29 -0.12,-0.06 -0.2,-0.2 -0.16,-0.34 0.01,-0.09 0.09,-0.18 0.18,-0.21 0.61,-0.29 1.22,-0.58 1.84,-0.87 0.16,-0.08 0.37,0.04 0.41,0.21 0.14,0.66 0.28,1.33 0.43,1.99 0.03,0.13 -0.04,0.28 -0.16,0.34 -0.08,0.04 -0.19,0.04 -0.28,0 -0.19,-0.09 -0.39,-0.19 -0.58,-0.28 -0.19,0.38 -0.38,0.76 -0.57,1.14 -0.36,0.7 -0.99,1.24 -1.72,1.49l-0.08 0.03c-0.42,0.13 -0.87,0.17 -1.31,0.11 -0.21,-0.02 -0.43,-0.06 -0.65,-0.07 -0.44,-0.03 -0.88,0.01 -1.3,0.12 -0.13,0.04 -0.26,0.09 -0.39,0.12 -0.14,0.04 -0.3,-0.04 -0.35,-0.17 -0.06,-0.14 -0.1,-0.27 -0.15,-0.4 -0.17,-0.4 -0.41,-0.77 -0.7,-1.1 -0.13,-0.17 -0.29,-0.31 -0.44,-0.47 -0.31,-0.3 -0.54,-0.68 -0.7,-1.08l-0.04 -0.12c-0.23,-0.74 -0.18,-1.56 0.15,-2.26 0.18,-0.38 0.38,-0.76 0.56,-1.15 -0.19,-0.09 -0.38,-0.19 -0.58,-0.28 -0.11,-0.06 -0.18,-0.19 -0.17,-0.31 0.01,-0.11 0.08,-0.2 0.18,-0.25 0.58,-0.27 1.17,-0.55 1.75,-0.82 0.08,-0.04 0.16,-0.08 0.25,-0.07 0.12,0.01 0.24,0.12 0.26,0.24 0.15,0.66 0.29,1.32 0.43,1.98 0.02,0.1 -0.01,0.22 -0.09,0.29 -0.09,0.09 -0.23,0.11 -0.34,0.06 -0.2,-0.1 -0.39,-0.2 -0.59,-0.29 -0.14,0.31 -0.32,0.6 -0.42,0.93 -0.14,0.46 -0.14,0.97 0.01,1.43 0.15,0.49 0.47,0.94 0.89,1.24 0.11,0.09 0.23,0.17 0.35,0.25 0.54,-1.08 1.07,-2.16 1.61,-3.25 0.19,-0.39 0.38,-0.77 0.57,-1.17 -0.26,-0.12 -0.51,-0.25 -0.77,-0.37 -0.06,-0.03 -0.11,-0.06 -0.15,-0.11 -0.08,-0.09 -0.09,-0.22 -0.04,-0.32 0.08,-0.17 0.17,-0.34 0.25,-0.51 0.03,-0.06 0.06,-0.12 0.12,-0.16 0.09,-0.07 0.21,-0.08 0.31,-0.03 0.28,0.14 0.55,0.27 0.82,0.41 0.25,-0.51 0.51,-1.01 0.75,-1.52 -0.14,-0.17 -0.26,-0.37 -0.33,-0.59 -0.3,-0.85 0.19,-1.87 1.03,-2.19 0.9,-0.4 2.04,0.15 2.33,1.08 0.33,0.89 -0.21,1.96 -1.11,2.24 -0.27,0.1 -0.57,0.12 -0.85,0.07zm40.77 -36.53l0.15 0c0.57,0.05 1.14,0.04 1.7,0.13 2.65,0.31 5.21,1.36 7.31,3.01 3.05,2.38 5.12,5.99 5.56,9.84 0.29,2.31 0.02,4.69 -0.78,6.88 -0.49,1.39 -1.22,2.67 -2.08,3.86 0.86,0.86 1.72,1.72 2.58,2.57 0.71,-0.01 1.42,0.26 1.92,0.77 1.58,1.56 3.15,3.14 4.72,4.71 0.38,0.38 0.8,0.73 1.04,1.22 0.16,0.33 0.24,0.69 0.27,1.06l0 0.09c-0.03,0.42 -0.14,0.84 -0.36,1.2 -0.27,0.43 -0.66,0.78 -1.03,1.14 -0.45,0.42 -1.06,0.64 -1.68,0.66l-0.02 0c-0.65,-0.03 -1.28,-0.29 -1.74,-0.76 -1.61,-1.6 -3.22,-3.21 -4.83,-4.82 -0.38,-0.38 -0.78,-0.75 -0.99,-1.26 -0.16,-0.34 -0.2,-0.73 -0.21,-1.1 -0.85,-0.86 -1.71,-1.72 -2.57,-2.58 -1.28,0.93 -2.68,1.71 -4.19,2.2 -4.01,1.38 -8.61,0.9 -12.25,-1.27 -2.55,-1.52 -4.67,-3.8 -5.89,-6.51 -0.9,-1.89 -1.33,-3.97 -1.38,-6.06l0 -0.3c0.04,-1.58 0.28,-3.16 0.81,-4.66 1.22,-3.65 3.96,-6.77 7.41,-8.46 2.02,-1.02 4.28,-1.52 6.53,-1.56zm0.02 3.29c-6.44,0 -11.65,5.22 -11.65,11.66 0,6.43 5.21,11.65 11.65,11.65 6.44,0 11.66,-5.22 11.66,-11.65 0,-6.44 -5.22,-11.66 -11.66,-11.66zm-43.7 0.47c6.77,0 13.55,0 20.33,0 0,3.55 0,7.09 0,10.64 2.22,0 4.45,-0.01 6.67,0 0,5.08 0,10.15 0,15.23 3,1.34 6.01,2.67 9,4.02 -2.28,4.94 -4.57,9.87 -6.84,14.81 0.78,-0.28 1.39,-0.87 2.11,-1.26 1.54,-0.84 3.44,-0.96 5.11,-0.44 0.93,0.28 1.7,0.86 2.5,1.39 0.44,0.31 0.98,0.4 1.51,0.42l0 3.54c-1.18,-0.02 -2.36,-0.3 -3.35,-0.93 -0.68,-0.39 -1.26,-0.99 -2.06,-1.14 -0.73,-0.12 -1.54,-0.06 -2.17,0.37 -0.72,0.48 -1.42,1.01 -2.25,1.3 -1.49,0.53 -3.17,0.52 -4.65,-0.05 -0.79,-0.3 -1.45,-0.81 -2.15,-1.27 -0.62,-0.41 -1.42,-0.47 -2.14,-0.35 -0.75,0.13 -1.3,0.68 -1.93,1.06 -1.46,0.96 -3.32,1.21 -5.01,0.83 -1.03,-0.21 -1.92,-0.78 -2.76,-1.38 -1,-0.76 -2.52,-0.76 -3.52,0.01 -0.74,0.52 -1.5,1.03 -2.38,1.27 -1.73,0.5 -3.69,0.32 -5.24,-0.64 -0.49,-0.29 -0.93,-0.67 -1.44,-0.93 -0.59,-0.3 -1.28,-0.32 -1.93,-0.21 -0.68,0.12 -1.2,0.61 -1.77,0.96 -2.1,1.46 -5.1,1.45 -7.21,0.01 -0.59,-0.37 -1.14,-0.88 -1.86,-0.99 -0.7,-0.1 -1.47,-0.05 -2.08,0.35 -0.69,0.45 -1.35,0.98 -2.14,1.27 -0.76,0.32 -1.59,0.43 -2.41,0.46l0 -3.54c0.84,0.03 1.57,-0.4 2.21,-0.89 1.99,-1.48 4.84,-1.65 6.99,-0.43 0.69,0.38 1.27,0.94 2.02,1.21 -2.26,-4.94 -4.56,-9.87 -6.83,-14.81 3,-1.34 5.99,-2.67 8.99,-4.01 0,-5.08 0,-10.16 0,-15.24 2.23,-0.01 4.45,0 6.68,0 0,-3.55 0,-7.09 0,-10.64zm-17.19 54.01c1.58,-0.91 3.56,-1.04 5.28,-0.48 0.89,0.28 1.64,0.84 2.4,1.35 0.66,0.45 1.49,0.5 2.25,0.36 0.73,-0.16 1.28,-0.71 1.91,-1.08 1.6,-1.03 3.68,-1.22 5.48,-0.65 0.9,0.28 1.66,0.84 2.42,1.36 0.67,0.46 1.52,0.51 2.3,0.36 0.65,-0.14 1.16,-0.6 1.7,-0.95 2.11,-1.45 5.11,-1.45 7.22,0 0.53,0.33 1.01,0.78 1.64,0.94 0.5,0.11 1.03,0.11 1.54,0.01 0.66,-0.15 1.18,-0.63 1.75,-0.99 2.09,-1.4 5.03,-1.4 7.12,0.01 0.59,0.37 1.13,0.88 1.84,1 0.68,0.11 1.42,0.08 2.03,-0.28 0.61,-0.36 1.16,-0.82 1.81,-1.13 1.5,-0.75 3.29,-0.83 4.88,-0.34 0.92,0.28 1.7,0.87 2.49,1.4 0.45,0.3 0.99,0.39 1.52,0.42l0 3.53c-1.15,-0.01 -2.3,-0.28 -3.28,-0.88 -0.71,-0.39 -1.3,-1.03 -2.12,-1.18 -0.74,-0.12 -1.54,-0.07 -2.18,0.36 -0.72,0.48 -1.42,1.02 -2.24,1.31 -1.46,0.52 -3.11,0.52 -4.57,-0.01 -0.82,-0.3 -1.52,-0.84 -2.24,-1.31 -0.63,-0.41 -1.42,-0.47 -2.14,-0.35 -0.75,0.13 -1.3,0.68 -1.93,1.05 -1.68,1.11 -3.88,1.28 -5.75,0.62 -0.8,-0.28 -1.48,-0.79 -2.17,-1.26 -0.72,-0.51 -1.69,-0.57 -2.53,-0.34 -0.69,0.24 -1.21,0.76 -1.83,1.1 -1.59,0.97 -3.6,1.12 -5.35,0.57 -0.89,-0.27 -1.65,-0.83 -2.41,-1.35 -0.64,-0.45 -1.48,-0.52 -2.23,-0.39 -0.69,0.12 -1.21,0.62 -1.78,0.97 -2.1,1.45 -5.09,1.45 -7.2,0.01 -0.59,-0.37 -1.14,-0.88 -1.86,-0.99 -0.7,-0.1 -1.47,-0.05 -2.08,0.34 -0.65,0.42 -1.26,0.91 -1.98,1.21 -0.81,0.37 -1.7,0.5 -2.58,0.52l0 -3.53c0.41,-0.04 0.84,-0.06 1.21,-0.26 0.59,-0.29 1.08,-0.73 1.66,-1.05zm20.73 -50.46l0 0c0,2.36 0,4.72 0,7.09 4.41,0 8.83,0 13.25,0 0,-2.37 0,-4.73 0,-7.09 -4.42,0 -8.84,-0.01 -13.25,0zm-6.68 10.64l0 0c0.02,3.37 -0.01,6.74 0.01,10.1 4.43,-1.98 8.86,-3.95 13.29,-5.93 4.44,1.97 8.87,3.95 13.3,5.93 0,-3.37 0,-6.74 0,-10.11 -8.87,0 -17.74,-0.02 -26.6,0.01zm-7.81 17.47l0 0c1.86,4.01 3.68,8.03 5.58,12.02 1.52,-1.03 3.5,-1.22 5.25,-0.75 1,0.25 1.84,0.86 2.68,1.43 0.66,0.46 1.52,0.51 2.29,0.36 0.63,-0.13 1.12,-0.57 1.64,-0.91 2.09,-1.47 5.09,-1.51 7.21,-0.08 0.56,0.33 1.06,0.81 1.7,0.98 0.51,0.11 1.04,0.11 1.54,0.01 0.64,-0.14 1.14,-0.59 1.68,-0.93 2.06,-1.44 4.99,-1.47 7.11,-0.11 1.84,-4.01 3.7,-8.01 5.55,-12.02 -6.45,-2.88 -12.9,-5.76 -19.35,-8.64 0,4.35 0.01,6.89 0,11.23 -1.18,0 -2.36,0 -3.54,0 0,-4.34 0,-6.88 0,-11.22 -6.45,2.88 -12.89,5.76 -19.34,8.63zm46.67 -21.75l0 1.76c0.65,0.28 0.81,0.36 1.54,0.63 0.12,0.05 0.25,0.09 0.39,0.14 0.19,0.08 0.24,0.04 0.32,0.24 0.09,0.23 0.26,0.55 0.33,0.77 0.03,0.11 -0.23,0.62 -0.29,0.75 -0.09,0.21 -0.47,1.12 -0.53,1.38 -0.03,0.1 -0.01,0.11 0.05,0.17l1.09 1.08c0.16,0.15 0.47,-0.03 0.79,-0.16l1.14 -0.49c0.49,-0.2 0.23,-0.19 0.79,0.02 0.14,0.05 0.26,0.1 0.4,0.16 0.22,0.08 0.27,0.35 0.41,0.69 0.21,0.53 0.45,1.03 0.7,1.51l1.79 0c0.36,-0.74 0.54,-1.22 0.83,-1.98 0.06,-0.16 0.04,-0.17 0.23,-0.24l0.67 -0.27c0.17,-0.07 0.2,-0.04 0.35,0.03 0.22,0.1 0.44,0.18 0.65,0.27 0.27,0.11 1.07,0.45 1.36,0.49 0.05,-0.02 1.25,-1.19 1.26,-1.24 0.03,-0.14 -0.63,-1.58 -0.72,-1.76 -0.24,-0.48 -0.17,-0.35 0.04,-0.89 0.21,-0.52 0.12,-0.42 0.64,-0.62 0.6,-0.23 1.23,-0.49 1.74,-0.76l0 -1.75c-0.7,-0.32 -0.84,-0.35 -1.56,-0.64 -0.52,-0.21 -0.59,-0.13 -0.7,-0.4l-0.33 -0.76c-0.01,-0.07 0.55,-1.35 0.62,-1.55 0.06,-0.14 0.12,-0.27 0.16,-0.41 0.07,-0.21 0.12,-0.23 -0.03,-0.35l-0.54 -0.54c-0.65,-0.62 -0.51,-0.67 -0.97,-0.49l-1.15 0.48c-0.16,0.06 -0.62,0.32 -0.77,0.27l-0.78 -0.31c-0.16,-0.07 -0.17,-0.16 -0.23,-0.33l-0.85 -1.87 -1.79 0c-0.12,0.26 -0.24,0.48 -0.35,0.76 -0.11,0.26 -0.21,0.52 -0.31,0.79 -0.06,0.14 -0.11,0.26 -0.16,0.4 -0.09,0.21 -0.04,0.19 -0.26,0.28 -0.15,0.05 -0.68,0.29 -0.77,0.3 -0.09,0.01 -1.61,-0.63 -2,-0.76 -0.23,-0.07 -0.23,-0.11 -0.37,0.04l-0.83 0.81c-0.06,0.05 -0.09,0.08 -0.14,0.14 -0.06,0.06 -0.09,0.08 -0.13,0.13 -0.12,0.14 0.46,1.34 0.56,1.53 0.11,0.22 0.33,0.59 0.26,0.76 -0.35,0.87 -0.26,0.81 -0.66,0.97 -0.67,0.27 -1.28,0.5 -1.89,0.82z"/>
 </g>
</svg>
